<svg xmlns="http://www.w3.org/2000/svg" viewBox="0 0 64 64"><!-- TODO: replace with the real logo mark --><rect width="64" height="64" rx="16" fill="#FF6A1A"/><path d="M42.5 22.6c-2-3.2-5.7-5.1-10.3-5.1-6.4 0-10.6 3.4-10.6 8.4 0 4.6 3.2 6.8 9.4 8.1l2.6.5c3.4.7 4.7 1.6 4.7 3.3 0 2-2.1 3.3-5.3 3.3-3.6 0-6.1-1.6-7.3-4.3l-6 2.9c2 4.7 6.8 7.6 13.2 7.6 7.2 0 11.9-3.6 11.9-9.1 0-4.6-3-7-9.5-8.3l-2.6-.5c-3.2-.6-4.4-1.4-4.4-3 0-1.7 1.8-2.9 4.6-2.9 2.8 0 4.8 1.2 5.9 3.2z" fill="#1E1814"/><circle cx="49" cy="46" r="3.5" fill="#1E1814"/></svg>
